<?xml version="1.0" standalone="no"?>
<!DOCTYPE svg PUBLIC "-//W3C//DTD SVG 20010904//EN"
 "http://www.w3.org/TR/2001/REC-SVG-20010904/DTD/svg10.dtd">


<!-- <svg version="1.0" xmlns="http://www.w3.org/2000/svg"
  width="546.000000pt"
  height="158.000000pt" viewBox="0 0 546.000000 158.000000" preserveAspectRatio="xMidYMid meet"> -->


<svg version="1.0" xmlns="http://www.w3.org/2000/svg" viewBox="0 0 546.000000 158.000000" preserveAspectRatio="xMidYMid meet">
  <metadata>
    Created by potrace 1.13, written by Peter Selinger 2001-2015
  </metadata>
  <g transform="translate(0.000000,158.000000) scale(0.100000,-0.100000)" fill="#000000" stroke="none">
    <path d="M3001 1308 c-14 -5 -54 -8 -90 -7 -36 1 -190 2 -341 1 -151 -1 -769
0 -1372 2 l-1098 3 0 -31 0 -32 1083 -1 c595 0 1204 -1 1352 -1 436 -1 1070
-1 1345 -1 419 1 1004 -1 1025 -3 11 -1 116 -1 233 0 l212 2 0 31 0 30 -87 0
c-49 -1 -329 0 -623 1 -294 1 -571 1 -615 0 -133 -4 -982 5 -992 11 -4 2 -19
1 -32 -5z" />
    <path d="M350 1159 c-19 -5 -72 -6 -118 -2 -76 5 -85 4 -102 -15 -25 -27 -25
-27 8 -41 31 -13 30 -10 29 -191 -1 -81 0 -127 6 -263 5 -126 18 -153 84 -172
23 -7 55 -22 72 -34 27 -20 36 -21 65 -11 18 6 40 9 47 8 22 -5 23 39 1 46
-29 10 -44 53 -51 156 -9 112 -6 363 3 407 4 17 16 39 27 49 22 20 25 44 7 62
-14 14 -28 14 -78 1z" />
    <path d="M625 1160 c-11 -5 -32 -11 -47 -14 -37 -8 -36 -34 3 -48 16 -6 28
-13 25 -16 -3 -3 -1 -10 4 -17 18 -21 32 -161 21 -202 -14 -50 -14 -119 1
-182 12 -53 11 -58 -30 -126 -10 -16 -35 -39 -55 -50 -26 -14 -37 -27 -37 -42
0 -19 5 -23 34 -23 52 0 65 8 90 59 35 69 45 141 42 301 -4 169 5 224 45 279
16 23 29 44 29 49 0 9 -75 42 -93 41 -6 0 -21 -4 -32 -9z" />
    <path d="M825 1150 c-15 -17 -14 -19 16 -41 54 -38 97 -92 116 -142 9 -26 24
-55 33 -65 8 -9 39 -65 69 -124 29 -59 62 -115 72 -124 11 -9 19 -22 19 -28 0
-5 17 -44 38 -85 33 -66 42 -76 87 -97 28 -13 64 -24 82 -24 30 0 32 2 43 57
9 42 9 66 1 93 -6 21 -11 57 -11 81 0 48 -19 85 -80 159 -20 25 -40 54 -43 65
-27 90 -52 145 -81 175 -19 19 -36 44 -38 55 -6 37 -82 53 -208 45 -14 -1 -42
2 -62 8 -31 8 -40 7 -53 -8z" />
    <path d="M1715 1149 c-16 -10 -35 -17 -42 -15 -12 5 -83 -66 -103 -105 -7 -13
-13 -39 -12 -57 1 -19 -3 -43 -9 -54 -8 -15 -7 -24 4 -36 8 -9 26 -41 39 -69
24 -50 30 -56 114 -97 49 -25 102 -47 117 -51 59 -12 91 -127 45 -159 -12 -9
-30 -16 -39 -16 -17 0 -29 -19 -29 -46 0 -19 52 -18 116 1 41 13 55 25 90 73
58 82 71 144 49 225 -16 59 -56 117 -80 117 -6 0 -34 16 -61 35 -27 19 -56 35
-64 35 -8 0 -33 9 -56 19 -76 35 -88 116 -22 154 31 18 38 51 12 61 -24 9 -36
6 -69 -15z" />
    <path d="M1991 1149 c-15 -17 -23 -19 -39 -10 -11 6 -39 12 -63 13 -39 3 -44
0 -47 -19 -3 -18 7 -27 46 -47 53 -27 112 -103 112 -144 0 -30 28 -28 41 2 8
17 8 33 1 54 -5 16 -8 50 -5 75 6 51 -2 97 -17 97 -5 0 -18 -9 -29 -21z" />
    <path d="M2485 1153 c-49 -9 -96 -17 -103 -19 -15 -4 -11 -63 12 -162 37 -166
48 -220 49 -262 2 -40 0 -45 -22 -48 -13 -2 -28 1 -34 7 -20 20 -37 12 -37
-19 0 -33 6 -35 88 -30 35 1 42 -1 42 -17 0 -10 3 -42 6 -71 4 -34 2 -57 -6
-67 -7 -8 -10 -21 -7 -29 5 -12 29 -14 129 -11 150 5 184 8 181 18 -2 4 -3 13
-3 20 0 8 -11 19 -24 25 -19 8 -23 18 -23 51 0 22 -6 47 -12 55 -7 8 -10 19
-7 24 3 5 -2 34 -11 63 -9 30 -17 70 -18 90 -1 19 -4 39 -7 45 -19 29 -48 140
-48 179 0 26 -7 57 -16 71 -9 14 -17 41 -18 61 -1 20 -5 37 -11 38 -5 2 -50
-4 -100 -12z" />
    <path d="M2898 1148 c-39 -20 -42 -42 -7 -53 10 -4 20 -9 20 -13 1 -4 3 -79 4
-167 1 -88 6 -196 10 -240 9 -102 -5 -160 -48 -197 l-32 -27 31 -13 c23 -10
69 -12 177 -8 80 3 149 8 153 13 4 4 -6 20 -23 36 l-31 28 2 286 c1 281 1 286
24 309 44 48 29 57 -83 48 -56 -4 -88 -2 -105 7 -32 16 -46 15 -92 -9z" />
    <path d="M4132 1150 c-14 -23 -8 -40 13 -40 20 0 101 -100 114 -142 7 -20 20
-47 30 -60 9 -13 26 -41 37 -63 69 -137 95 -183 109 -195 8 -7 15 -21 15 -31
0 -10 5 -21 10 -24 6 -4 23 -34 39 -68 32 -69 66 -93 146 -104 l42 -5 13 51
c7 29 9 66 6 84 -4 18 -10 59 -15 92 -8 70 -24 103 -80 167 -23 25 -41 53 -41
62 0 9 -4 24 -9 34 -5 9 -17 38 -26 63 -8 26 -31 63 -50 82 -19 20 -35 45 -35
56 0 13 -10 23 -32 30 -58 18 -134 24 -157 12 -16 -9 -31 -8 -66 4 -25 8 -47
15 -48 15 -1 0 -8 -9 -15 -20z" />
    <path d="M3363 1153 c-65 -3 -73 -6 -73 -24 0 -10 14 -32 32 -48 l32 -28 -19
-49 c-10 -27 -32 -62 -50 -79 -17 -16 -45 -57 -63 -89 -37 -68 -36 -94 3 -186
34 -81 41 -141 19 -175 -15 -23 -15 -28 -3 -36 12 -8 203 -16 254 -10 21 2 64
7 78 10 16 3 5 32 -19 47 -27 18 -54 63 -54 89 0 9 -20 56 -45 106 -25 50 -45
104 -45 120 0 15 -11 57 -24 92 l-24 64 32 41 c41 51 84 87 116 97 40 12 51
24 39 46 -10 20 -9 20 -186 12z" />
    <path d="M1290 1135 c0 -9 7 -18 15 -21 8 -4 15 -18 15 -32 0 -14 7 -33 16
-43 12 -14 17 -43 19 -121 2 -99 9 -138 24 -138 11 0 30 169 24 202 -8 44 4
73 42 99 41 28 44 45 10 61 -18 8 -28 8 -38 -1 -11 -8 -22 -9 -41 -1 -42 15
-86 13 -86 -5z" />
    <path d="M3792 1134 c-12 -8 -31 -13 -41 -9 -11 3 -22 1 -26 -5 -3 -5 -16 -10
-28 -10 -16 0 -30 -14 -49 -50 -16 -28 -28 -59 -28 -69 0 -29 83 -74 120 -66
39 9 74 67 66 110 -4 20 -1 43 9 61 27 52 18 67 -23 38z" />
    <path d="M3868 1126 c-9 -21 -7 -29 16 -56 32 -39 32 -52 0 -116 -23 -46 -30
-52 -74 -63 -26 -7 -56 -21 -66 -32 -15 -17 -15 -23 -4 -47 7 -15 12 -31 10
-37 -1 -5 -2 -34 -2 -64 1 -61 17 -87 36 -57 30 49 49 66 65 61 20 -6 82 17
123 47 15 10 41 48 59 84 31 63 32 66 19 121 -9 41 -21 65 -44 86 -17 15 -48
44 -68 63 -43 40 -55 42 -70 10z" />
    <path d="M4590 1141 c0 -5 7 -14 15 -21 8 -7 15 -24 15 -38 0 -14 8 -34 17
-44 10 -11 18 -40 19 -76 5 -77 5 -87 3 -121 -1 -17 4 -38 12 -47 12 -15 14
-13 21 17 4 19 10 81 13 138 5 111 2 103 73 157 12 9 12 13 -3 27 -19 19 -46
22 -61 7 -8 -8 -19 -8 -38 0 -33 12 -86 13 -86 1z" />
    <path d="M5022 1138 c-7 -7 -22 -13 -35 -14 -62 -4 -83 -16 -110 -64 -38 -68
-36 -84 19 -116 37 -22 51 -25 72 -18 39 14 66 58 68 112 1 26 5 62 9 80 7 33
-2 41 -23 20z" />
    <path d="M5102 1138 c-18 -18 -15 -33 13 -74 28 -41 27 -55 -11 -121 -18 -31
-32 -43 -56 -48 -52 -11 -88 -37 -88 -62 0 -12 4 -25 10 -28 5 -3 8 -31 5 -61
-4 -57 8 -108 24 -102 6 2 20 19 33 38 17 25 31 35 54 36 32 2 124 44 141 66
6 7 23 41 38 75 27 61 27 61 10 118 -9 32 -27 66 -41 78 -13 12 -37 34 -52 48
-41 39 -67 50 -80 37z" />
    <path d="M2341 986 c-8 -9 -18 -36 -22 -59 -4 -23 -18 -80 -33 -127 -14 -47
-26 -94 -26 -105 0 -18 -31 -86 -81 -179 -9 -16 -26 -33 -38 -37 -26 -10 -26
-20 -3 -48 14 -18 22 -20 48 -12 19 5 37 5 47 -1 10 -5 36 -8 59 -6 36 3 43 7
49 31 6 23 4 28 -16 33 -40 10 -57 37 -45 69 6 16 9 34 6 42 -3 7 -2 13 2 13
5 0 8 19 8 43 0 39 12 90 50 208 8 26 14 70 12 99 -3 48 -5 51 -17 36z" />
    <path d="M905 958 c-2 -7 -5 -49 -8 -93 -3 -61 0 -93 15 -136 19 -57 19 -57
-2 -98 -11 -23 -18 -46 -15 -50 9 -15 -16 -75 -41 -98 -13 -12 -24 -29 -24
-38 0 -13 14 -15 98 -13 l97 3 3 28 c3 23 -1 28 -25 33 -39 8 -56 65 -42 142
7 34 6 65 0 89 -6 21 -8 54 -5 74 4 25 -1 59 -16 103 -22 67 -28 76 -35 54z" />
    <path d="M4208 964 c-15 -15 -8 -186 9 -241 15 -49 16 -56 1 -81 -8 -15 -19
-49 -22 -75 -5 -32 -17 -59 -37 -82 -17 -19 -28 -39 -24 -45 3 -6 47 -10 101
-10 l94 0 0 30 c0 25 -5 31 -28 36 -37 8 -54 63 -40 130 6 25 7 67 2 92 -4 26
-8 74 -8 107 -1 61 -34 154 -48 139z" />
    <path d="M1557 678 c-9 -50 0 -229 11 -240 7 -7 19 -4 36 10 23 17 30 18 61 8
19 -7 38 -15 41 -19 11 -11 52 -8 59 4 9 14 -29 54 -71 74 -19 9 -34 21 -34
28 0 7 -9 29 -20 50 -11 20 -20 45 -20 55 0 23 -28 62 -44 62 -8 0 -16 -15
-19 -32z" />
    <path d="M3753 601 c-50 -23 -77 -61 -68 -93 24 -83 42 -95 120 -84 39 6 47
12 69 52 28 50 24 78 -16 122 -26 27 -50 28 -105 3z" />
    <path d="M4992 607 c-45 -14 -82 -51 -82 -82 0 -14 9 -44 20 -65 22 -43 34
-47 111 -34 29 5 39 14 58 50 26 48 24 75 -10 117 -22 29 -43 32 -97 14z" />
    <path d="M272 343 l-172 -3 0 -31 0 -31 128 2 c70 1 396 -1 725 -4 433 -5 597
-4 597 4 0 8 79 11 275 9 151 -2 275 -6 275 -9 0 -4 170 -5 378 -4 392 3 461
3 1960 -1 l912 -3 0 29 0 29 -72 1 c-40 1 -77 0 -83 -1 -5 -1 -59 -1 -120 0
-60 2 -337 2 -615 1 -619 -1 -650 -1 -775 5 -103 5 -572 6 -1197 1 -197 -1
-358 1 -358 4 0 9 -589 9 -595 0 -2 -5 -199 -6 -437 -4 -409 4 -464 4 -513 1
-11 -1 -47 0 -80 3 -33 3 -138 4 -233 2z" />
  </g>
</svg>
