<?xml version="1.0" standalone="no"?>
<!DOCTYPE svg PUBLIC "-//W3C//DTD SVG 20010904//EN"
 "http://www.w3.org/TR/2001/REC-SVG-20010904/DTD/svg10.dtd">
 <!-- /*width="912.000000pt" height="179.000000pt"**/ -->
<svg version="1.0" xmlns="http://www.w3.org/2000/svg"
  viewBox="0 0 912.000000 179.000000"
 preserveAspectRatio="xMidYMid meet">
<metadata>
Created by potrace 1.13, written by Peter Selinger 2001-2015
</metadata>
<g transform="translate(0.000000,179.000000) scale(0.100000,-0.100000)"
fill="#000000" stroke="none">
<path d="M6824 1723 c-25 -5 -98 -70 -109 -98 -35 -88 -21 -163 44 -224 46
-43 74 -53 136 -50 144 8 224 150 159 280 -38 75 -132 113 -230 92z"/>
<path d="M8834 1723 c-25 -5 -98 -70 -109 -98 -35 -88 -21 -163 44 -224 46
-43 74 -53 136 -50 144 8 224 150 159 280 -38 75 -132 113 -230 92z"/>
<path d="M5440 900 l0 -800 160 0 160 0 0 167 0 167 56 54 57 53 146 -220 146
-220 192 -1 191 0 -11 25 c-7 14 -15 25 -19 25 -5 0 -8 7 -8 15 0 8 -4 15 -10
15 -5 0 -10 7 -10 15 0 8 -4 15 -10 15 -5 0 -10 7 -10 15 0 8 -4 15 -10 15 -5
0 -10 7 -10 15 0 8 -4 15 -10 15 -5 0 -10 7 -10 15 0 8 -4 15 -10 15 -5 0 -10
7 -10 15 0 8 -4 15 -10 15 -5 0 -10 7 -10 15 0 8 -4 15 -10 15 -5 0 -10 7 -10
15 0 8 -4 15 -10 15 -5 0 -10 5 -10 10 0 6 -58 97 -128 203 l-129 192 31 30
c17 17 83 86 146 154 63 68 147 158 187 199 40 41 70 79 67 84 -3 4 -95 8
-204 8 -193 0 -199 -1 -214 -22 -29 -42 -331 -358 -342 -358 -2 0 -4 182 -4
405 l0 405 -160 0 -160 0 0 -800z"/>
<path d="M60 1138 c0 -275 4 -489 11 -528 50 -312 272 -509 594 -527 276 -15
507 107 613 327 69 141 72 174 72 715 l0 475 -164 0 -165 0 -3 -467 c-4 -452
-5 -470 -26 -533 -60 -177 -208 -256 -382 -204 -71 21 -148 97 -181 179 l-24
60 -3 483 -3 482 -169 0 -170 0 0 -462z"/>
<path d="M2202 1264 c-66 -17 -104 -36 -169 -85 l-53 -40 0 61 0 60 -165 0
-165 0 0 -580 0 -580 165 0 164 0 3 378 3 379 30 49 c79 126 271 156 347 53
50 -67 51 -80 56 -481 l4 -378 159 0 159 0 0 383 c0 415 -6 470 -55 567 -89
175 -293 266 -483 214z"/>
<path d="M3333 1266 c-131 -30 -244 -114 -292 -216 -35 -75 -36 -192 -2 -263
42 -86 147 -154 338 -221 122 -42 159 -60 196 -94 36 -34 37 -80 1 -113 -22
-21 -37 -24 -110 -28 -119 -5 -246 37 -366 121 -9 7 -19 10 -21 8 -27 -30
-135 -195 -131 -201 14 -23 161 -102 239 -128 194 -64 337 -67 490 -10 80 30
184 131 209 204 39 116 29 229 -27 312 -42 62 -126 107 -325 174 -84 29 -165
61 -178 72 -58 45 -51 104 15 131 82 32 207 14 324 -46 34 -18 65 -34 68 -36
7 -3 119 192 119 208 0 15 -119 77 -205 105 -99 34 -247 42 -342 21z"/>
<path d="M4525 1270 c-119 -19 -285 -84 -355 -139 l-25 -20 69 -100 c38 -56
70 -101 70 -101 1 0 37 18 80 40 230 115 436 82 453 -73 l5 -45 -198 -4 c-166
-4 -210 -9 -264 -26 -137 -45 -223 -121 -251 -225 -19 -71 -8 -203 23 -269 69
-148 245 -240 431 -225 86 7 161 41 227 103 l50 47 0 -67 0 -66 155 0 155 0 0
358 c0 394 -9 511 -44 587 -45 98 -131 170 -249 207 -73 23 -241 32 -332 18z
m295 -718 c0 -65 -34 -129 -88 -167 -41 -28 -50 -30 -135 -30 -80 0 -96 3
-124 23 -60 42 -68 130 -17 177 37 34 83 43 232 44 l132 1 0 -48z"/>
<path d="M7887 1261 c-70 -19 -119 -47 -172 -97 l-30 -28 -3 62 -3 62 -159 0
-160 0 0 -580 0 -580 160 0 160 0 1 338 c2 320 3 367 11 402 7 31 50 106 71
123 90 73 230 76 293 5 55 -62 56 -69 55 -484 l-2 -384 171 0 170 0 0 353 c0
194 -5 381 -11 417 -17 111 -19 121 -28 138 -5 9 -17 34 -27 55 -17 34 -89
115 -126 142 -21 15 -100 52 -133 62 -54 16 -167 13 -238 -6z"/>
<path d="M6730 680 l0 -580 160 0 160 0 0 580 0 580 -160 0 -160 0 0 -580z"/>
<path d="M8740 680 l0 -580 160 0 160 0 0 580 0 580 -160 0 -160 0 0 -580z"/>
</g>
</svg>
